<svg xmlns="http://www.w3.org/2000/svg" width="30.65" height="25.5" viewBox="0 0 30.65 25.5">
    <defs>
        <style>
            .cls-1{fill:#fff;stroke:#00548f;stroke-width:.5px}
        </style>
    </defs>
    <g id="group" transform="translate(.25 -43.479)">
        <g id="Group_334" transform="translate(0 54.679)">
            <g id="Group_333">
                <path id="Path_4182" d="M25.733 231.945h-2.951a4.4 4.4 0 0 0-1.161.156 4.42 4.42 0 0 0-3.938-2.421h-5.217a4.42 4.42 0 0 0-3.938 2.42 4.4 4.4 0 0 0-1.161-.156H4.416A4.421 4.421 0 0 0 0 236.362v4.718a2.653 2.653 0 0 0 2.65 2.65H27.5a2.653 2.653 0 0 0 2.65-2.65v-4.718a4.421 4.421 0 0 0-4.417-4.417zM8.05 234.1v7.867h-5.4a.884.884 0 0 1-.883-.883v-4.718a2.653 2.653 0 0 1 2.65-2.65h2.951a2.642 2.642 0 0 1 .693.093c-.007.091-.011.191-.011.291zm12.283 7.867H9.817V234.1a2.653 2.653 0 0 1 2.65-2.65h5.217a2.653 2.653 0 0 1 2.65 2.65zm8.05-.883a.884.884 0 0 1-.883.883h-5.4V234.1c0-.1 0-.2-.011-.292a2.644 2.644 0 0 1 .693-.093h2.951a2.653 2.653 0 0 1 2.65 2.65z" class="cls-1" transform="translate(0 -229.68)"/>
            </g>
        </g>
        <g id="Group_336" transform="translate(1.968 48.603)">
            <g id="Group_335">
                <path id="Path_4183" d="M37.339 126.5a3.925 3.925 0 1 0 3.925 3.925 3.929 3.929 0 0 0-3.925-3.925zm0 6.082a2.158 2.158 0 1 1 2.158-2.158 2.16 2.16 0 0 1-2.159 2.162z" class="cls-1" transform="translate(-33.414 -126.504)"/>
            </g>
        </g>
        <g id="Group_338" transform="translate(9.832 43.729)">
            <g id="Group_337">
                <path id="Path_4184" d="M172.205 43.729a5.243 5.243 0 1 0 5.243 5.243 5.249 5.249 0 0 0-5.243-5.243zm0 8.72a3.477 3.477 0 1 1 3.477-3.477 3.48 3.48 0 0 1-3.477 3.477z" class="cls-1" transform="translate(-166.962 -43.729)"/>
            </g>
        </g>
        <g id="Group_340" transform="translate(20.333 48.603)">
            <g id="Group_339">
                <path id="Path_4185" d="M349.219 126.5a3.925 3.925 0 1 0 3.925 3.925 3.929 3.929 0 0 0-3.925-3.925zm0 6.082a2.158 2.158 0 1 1 2.158-2.158 2.16 2.16 0 0 1-2.158 2.162z" class="cls-1" transform="translate(-345.294 -126.504)"/>
            </g>
        </g>
    </g>
</svg>
