<svg xmlns="http://www.w3.org/2000/svg" width="26.002" height="12" viewBox="0 0 26.002 12">
  <g id="Group_323" data-name="Group 323" transform="translate(-0.5 -398.582)">
    <path id="Path_4179" data-name="Path 4179" d="M4.851,398.582H1.715A1.138,1.138,0,0,0,.5,399.653V409.5c0,.64.624,1.086,1.518,1.086s1.518-.447,1.518-1.086v-3H4.7c2.582,0,4.063-1.434,4.063-3.934v-.078A3.556,3.556,0,0,0,4.851,398.582Zm-.152,5.37H3.536v-2.577H4.7c.441,0,1.027.125,1.027,1.2v.171C5.726,403.827,5.14,403.952,4.7,403.952Zm0,0" fill="#fff"/>
    <path id="Path_4180" data-name="Path 4180" d="M83.615,398.582H80.933c-.779,0-1.367.461-1.367,1.071v9.858c0,.611.588,1.071,1.367,1.071h2.681c2.582,0,4.063-1.457,4.063-4v-4.008C87.678,400.038,86.2,398.582,83.615,398.582Zm0,9.207H82.6v-6.415h1.012c.44,0,1.026.125,1.026,1.2v4.008C84.641,407.665,84.055,407.789,83.615,407.789Zm0,0" transform="translate(-69.943)" fill="#fff"/>
    <path id="Path_4181" data-name="Path 4181" d="M166.1,398.582h-5.256c-.792,0-1.367.457-1.367,1.087V409.5c0,.64.624,1.086,1.518,1.086s1.518-.447,1.518-1.086v-3.648h1.951a1.3,1.3,0,0,0,0-2.545h-1.951v-1.927H166.1c.617,0,1.049-.581,1.049-1.412C167.144,399.15,166.713,398.582,166.1,398.582Zm0,0" transform="translate(-140.643)" fill="#fff"/>
  </g>
</svg>
